<?xml version="1.0" encoding="UTF-8"?>
<svg id="mermaid-1773296132241" width="100%" xmlns="http://www.w3.org/2000/svg" xmlns:xlink="http://www.w3.org/1999/xlink" viewBox="0 0 684.84375 450" style="max-width: 684.84375px;" role="graphics-document document" aria-roledescription="pie"><defs><style type="text/css">
  body {
    margin: 0;
    padding: 20px;
    background: white;
    display: flex;
    justify-content: center;
    align-items: flex-start;
  }
  #mermaid-container {
    display: inline-block;
    background: white;
  }
  #mermaid-container svg {
    max-width: none !important;
  }
  #error-message {
    color: red;
    font-family: monospace;
    white-space: pre-wrap;
    display: none;
  }

</style></defs><style>#mermaid-1773296132241{font-family:"trebuchet ms",verdana,arial,sans-serif;font-size:16px;fill:#ccc;}@keyframes edge-animation-frame{from{stroke-dashoffset:0;}}@keyframes dash{to{stroke-dashoffset:0;}}#mermaid-1773296132241 .edge-animation-slow{stroke-dasharray:9,5!important;stroke-dashoffset:900;animation:dash 50s linear infinite;stroke-linecap:round;}#mermaid-1773296132241 .edge-animation-fast{stroke-dasharray:9,5!important;stroke-dashoffset:900;animation:dash 20s linear infinite;stroke-linecap:round;}#mermaid-1773296132241 .error-icon{fill:#a44141;}#mermaid-1773296132241 .error-text{fill:#ddd;stroke:#ddd;}#mermaid-1773296132241 .edge-thickness-normal{stroke-width:1px;}#mermaid-1773296132241 .edge-thickness-thick{stroke-width:3.5px;}#mermaid-1773296132241 .edge-pattern-solid{stroke-dasharray:0;}#mermaid-1773296132241 .edge-thickness-invisible{stroke-width:0;fill:none;}#mermaid-1773296132241 .edge-pattern-dashed{stroke-dasharray:3;}#mermaid-1773296132241 .edge-pattern-dotted{stroke-dasharray:2;}#mermaid-1773296132241 .marker{fill:#06b6d4;stroke:#06b6d4;}#mermaid-1773296132241 .marker.cross{stroke:#06b6d4;}#mermaid-1773296132241 svg{font-family:"trebuchet ms",verdana,arial,sans-serif;font-size:16px;}#mermaid-1773296132241 p{margin:0;}#mermaid-1773296132241 .pieCircle{stroke:black;stroke-width:2px;opacity:0.7;}#mermaid-1773296132241 .pieOuterCircle{stroke:black;stroke-width:2px;fill:none;}#mermaid-1773296132241 .pieTitleText{text-anchor:middle;font-size:25px;fill:lightgrey;font-family:"trebuchet ms",verdana,arial,sans-serif;}#mermaid-1773296132241 .slice{font-family:"trebuchet ms",verdana,arial,sans-serif;fill:#ccc;font-size:17px;}#mermaid-1773296132241 .legend text{fill:lightgrey;font-family:"trebuchet ms",verdana,arial,sans-serif;font-size:17px;}#mermaid-1773296132241 :root{--mermaid-font-family:"trebuchet ms",verdana,arial,sans-serif;}</style><g></g><g transform="translate(225,225)"><circle cx="0" cy="0" r="186" class="pieOuterCircle"></circle><path d="M0,-185A185,185,0,0,1,181.524,35.691L0,0Z" fill="#0b0000" class="pieCircle"></path><path d="M181.524,35.691A185,185,0,0,1,66.574,172.606L0,0Z" fill="#4d1037" class="pieCircle"></path><path d="M66.574,172.606A185,185,0,0,1,-95.046,158.717L0,0Z" fill="#3f5258" class="pieCircle"></path><path d="M-95.046,158.717A185,185,0,0,1,-178.057,50.205L0,0Z" fill="#4f2f1b" class="pieCircle"></path><path d="M-178.057,50.205A185,185,0,0,1,-175,-60L0,0Z" fill="#6e0a0a" class="pieCircle"></path><path d="M-175,-60A185,185,0,0,1,-124.228,-137.086L0,0Z" fill="#3b0048" class="pieCircle"></path><path d="M-124.228,-137.086A185,185,0,0,1,-60.441,-174.848L0,0Z" fill="#995a01" class="pieCircle"></path><path d="M-60.441,-174.848A185,185,0,0,1,0,-185L0,0Z" fill="#154706" class="pieCircle"></path><text transform="translate(107.15803914338396,-88.14032645131847)" class="slice" style="text-anchor: middle;">28%</text><text transform="translate(106.26367671060451,89.2165540241503)" class="slice" style="text-anchor: middle;">16%</text><text transform="translate(-11.87986974063355,138.2404831984668)" class="slice" style="text-anchor: middle;">14%</text><text transform="translate(-110.20188750647586,84.30365644507978)" class="slice" style="text-anchor: middle;">12%</text><text transform="translate(-138.69663897194613,-3.8477055352033283)" class="slice" style="text-anchor: middle;">10%</text><text transform="translate(-115.8740695454555,-76.32013172797163)" class="slice" style="text-anchor: middle;">8%</text><text transform="translate(-70.68369053861569,-119.39588934231031)" class="slice" style="text-anchor: middle;">6%</text><text transform="translate(-22.982777010108848,-136.83330903293836)" class="slice" style="text-anchor: middle;">5%</text><text x="0" y="-200" class="pieTitleText">Mira AI Skills Distribution</text><g class="legend" transform="translate(216,-88)"><rect width="18" height="18" style="fill: rgb(11, 0, 0); stroke: rgb(11, 0, 0);"></rect><text x="22" y="14">Development [350]</text></g><g class="legend" transform="translate(216,-66)"><rect width="18" height="18" style="fill: rgb(77, 16, 55); stroke: rgb(77, 16, 55);"></rect><text x="22" y="14">NLP [200]</text></g><g class="legend" transform="translate(216,-44)"><rect width="18" height="18" style="fill: rgb(63, 82, 88); stroke: rgb(63, 82, 88);"></rect><text x="22" y="14">Analysis [180]</text></g><g class="legend" transform="translate(216,-22)"><rect width="18" height="18" style="fill: rgb(79, 47, 27); stroke: rgb(79, 47, 27);"></rect><text x="22" y="14">Extraction [150]</text></g><g class="legend" transform="translate(216,0)"><rect width="18" height="18" style="fill: rgb(110, 10, 10); stroke: rgb(110, 10, 10);"></rect><text x="22" y="14">Integration [120]</text></g><g class="legend" transform="translate(216,22)"><rect width="18" height="18" style="fill: rgb(59, 0, 72); stroke: rgb(59, 0, 72);"></rect><text x="22" y="14">Vision [100]</text></g><g class="legend" transform="translate(216,44)"><rect width="18" height="18" style="fill: rgb(153, 90, 1); stroke: rgb(153, 90, 1);"></rect><text x="22" y="14">Security [80]</text></g><g class="legend" transform="translate(216,66)"><rect width="18" height="18" style="fill: rgb(21, 71, 6); stroke: rgb(21, 71, 6);"></rect><text x="22" y="14">Documentation [66]</text></g></g></svg>